Coordinates
version=1
nRows=49
nColumns=12
inDegrees=yes

Units are S.I. units (second, meters, Newtons, ...)
Angles are in degrees

endheader
time	SC_y	SC_z	SC_x	AC_y	AC_z	AC_x	GH_y	GH_z	GH_yy	EL_x	PS_y
       0.0              -12.53          17.05          56.73          30.87         -15.17         -19.14         -68.69          59.74         -93.75          57.64          142.6
 0.0003275              -12.53          17.05          56.73          30.88         -15.17         -19.14         -68.68          59.75         -93.75          57.63          142.6
 0.0006551              -12.53          17.05          56.73          30.88         -15.17         -19.13         -68.67          59.75         -93.75          57.63          142.6
 0.0009826              -12.53          17.05          56.74          30.88         -15.17         -19.13         -68.66          59.76         -93.75          57.62          142.6
   0.00131              -12.54          17.05          56.74          30.88         -15.17         -19.12         -68.64          59.76         -93.74          57.62          142.5
  0.001638              -12.54          17.05          56.74          30.89         -15.17         -19.12         -68.63          59.77         -93.74          57.61          142.5
  0.001965              -12.54          17.05          56.75          30.89         -15.17         -19.11         -68.62          59.77         -93.74          57.61          142.5
  0.002293              -12.55          17.05          56.75          30.89         -15.17          -19.1          -68.6          59.78         -93.73           57.6          142.5
   0.00262              -12.55          17.05          56.76           30.9         -15.17          -19.1         -68.59          59.79         -93.73          57.59          142.4
  0.002948              -12.55          17.05          56.76           30.9         -15.17         -19.09         -68.57           59.8         -93.73          57.59          142.4
  0.003275              -12.56          17.05          56.77           30.9         -15.17         -19.08         -68.55           59.8         -93.72          57.58          142.4
  0.003603              -12.56          17.05          56.77          30.91         -15.17         -19.07         -68.54          59.81         -93.72          57.57          142.3
   0.00393              -12.56          17.05          56.78          30.91         -15.17         -19.06         -68.51          59.82         -93.71          57.56          142.3
  0.004258              -12.57          17.04          56.79          30.92         -15.17         -19.05         -68.49          59.83         -93.71          57.55          142.2
  0.004586              -12.57          17.04          56.79          30.92         -15.17         -19.04         -68.47          59.84          -93.7          57.54          142.2
  0.004913              -12.58          17.04           56.8          30.93         -15.17         -19.03         -68.44          59.85          -93.7          57.53          142.1
  0.005241              -12.59          17.04          56.81          30.93         -15.17         -19.02         -68.41          59.87         -93.69          57.52          142.1
  0.005568              -12.59          17.04          56.82          30.94         -15.17         -19.01         -68.38          59.88         -93.68           57.5          142.0
  0.005896               -12.6          17.04          56.83          30.95         -15.17         -18.99         -68.35          59.89         -93.68          57.49          142.0
  0.006223              -12.61          17.04          56.84          30.95         -15.17         -18.97         -68.31          59.91         -93.67          57.47          141.9
  0.006551              -12.62          17.04          56.85          30.96         -15.17         -18.96         -68.27          59.93         -93.66          57.46          141.8
  0.006878              -12.63          17.04          56.86          30.97         -15.17         -18.94         -68.23          59.95         -93.65          57.44          141.7
  0.007206              -12.64          17.04          56.88          30.98         -15.17         -18.91         -68.18          59.97         -93.64          57.42          141.6
  0.007533              -12.65          17.03          56.89          30.99         -15.17         -18.89         -68.13          59.99         -93.62          57.39          141.5
  0.007861              -12.66          17.03          56.91          31.01         -15.17         -18.86         -68.07          60.02         -93.61          57.37          141.4
  0.008188              -12.67          17.03          56.93          31.02         -15.17         -18.83          -68.0          60.05          -93.6          57.34          141.3
  0.008516              -12.69          17.03          56.95          31.04         -15.18          -18.8         -67.92          60.09         -93.58          57.31          141.1
  0.008843              -12.71          17.03          56.98          31.05         -15.18         -18.76         -67.84          60.12         -93.56          57.27          140.9
  0.009171              -12.73          17.02          57.01          31.07         -15.18         -18.72         -67.74          60.17         -93.54          57.23          140.8
  0.009499              -12.75          17.02          57.04           31.1         -15.18         -18.67         -67.63          60.21         -93.51          57.18          140.5
  0.009826              -12.78          17.02          57.07          31.12         -15.18         -18.61         -67.51          60.27         -93.48          57.13          140.3
   0.01015              -12.81          17.01          57.12          31.15         -15.18         -18.55         -67.37          60.33         -93.45          57.07          140.0
   0.01048              -12.84          17.01          57.17          31.19         -15.18         -18.48          -67.2          60.41         -93.41           57.0          139.7
   0.01081              -12.89           17.0          57.22          31.23         -15.18         -18.39         -67.01          60.49         -93.37          56.91          139.3
   0.01114              -12.93           17.0          57.29          31.28         -15.18         -18.29         -66.79          60.59         -93.32          56.82          138.9
   0.01146              -12.99          16.99          57.36          31.33         -15.18         -18.17         -66.53          60.71         -93.26          56.71          138.3
   0.01179              -13.06          16.98          57.46           31.4         -15.18         -18.03         -66.21          60.85         -93.19          56.57          137.7
   0.01212              -13.14          16.97          57.57          31.48         -15.19         -17.86         -65.84          61.02          -93.1          56.41          137.0
   0.01245              -13.23          16.96           57.7          31.57         -15.19         -17.66         -65.38          61.22          -93.0          56.21          136.1
   0.01277              -13.35          16.94          57.86          31.69         -15.19         -17.41         -64.83          61.47         -92.87          55.97          135.0
    0.0131               -13.5          16.92          58.07          31.83         -15.19          -17.1         -64.14          61.78         -92.71          55.68          133.6
   0.01343              -13.68           16.9          58.32          32.01          -15.2         -16.72         -63.29          62.16         -92.52          55.31          131.9
   0.01376              -13.91          16.87          58.63          32.24          -15.2         -16.24         -62.21          62.64         -92.27          54.85          129.8
   0.01408               -14.2          16.83          59.04          32.53         -15.21         -15.62         -60.85          63.25         -91.96          54.26          127.1
   0.01441              -14.58          16.79          59.55           32.9         -15.22         -14.84          -59.1          64.04         -91.56          53.51          123.6
   0.01474              -15.06          16.72          60.21          33.37         -15.23         -13.83         -56.85          65.04         -91.05          52.54          119.2
   0.01507              -15.67          16.65          61.06          33.98         -15.24         -12.54         -53.98          66.32         -90.39          51.31          113.5
   0.01539              -16.44          16.55          62.12          34.74         -15.26         -10.93         -50.38          67.94         -89.57          49.75          106.3
   0.01572              -17.38          16.43          63.41          35.67         -15.28         -8.953         -45.98           69.9         -88.56          47.86          97.64
